{
	"asset":{
		"generator":"Khronos glTF Blender I/O v5.0.21",
		"version":"2.0"
	},
	"scene":0,
	"scenes":[
		{
			"name":"Scene",
			"nodes":[
				0
			]
		}
	],
	"nodes":[
		{
			"mesh":0,
			"name":"Cup",
			"rotation":[
				0.07845910638570786,
				0,
				0,
				0.9969174265861511
			],
			"translation":[
				0,
				0.20000000298023224,
				0
			]
		}
	],
	"materials":[
		{
			"doubleSided":true,
			"name":"white",
			"pbrMetallicRoughness":{
				"metallicFactor":0,
				"roughnessFactor":0.5
			}
		},
		{
			"doubleSided":true,
			"name":"skyblue",
			"pbrMetallicRoughness":{
				"baseColorFactor":[
					0.05087757855653763,
					1,
					1,
					1
				],
				"metallicFactor":0,
				"roughnessFactor":0.5
			}
		}
	],
	"meshes":[
		{
			"name":"\u5186",
			"primitives":[
				{
					"attributes":{
						"POSITION":0,
						"NORMAL":1,
						"TEXCOORD_0":2
					},
					"indices":3,
					"material":0
				},
				{
					"attributes":{
						"POSITION":4,
						"NORMAL":5,
						"TEXCOORD_0":6
					},
					"indices":7,
					"material":1
				}
			]
		}
	],
	"accessors":[
		{
			"bufferView":0,
			"componentType":5126,
			"count":276,
			"max":[
				1.2960001230239868,
				2.2799997329711914,
				1.2960001230239868
			],
			"min":[
				-1.2960001230239868,
				0,
				-1.2960001230239868
			],
			"type":"VEC3"
		},
		{
			"bufferView":1,
			"componentType":5126,
			"count":276,
			"type":"VEC3"
		},
		{
			"bufferView":2,
			"componentType":5126,
			"count":276,
			"type":"VEC2"
		},
		{
			"bufferView":3,
			"componentType":5123,
			"count":564,
			"type":"SCALAR"
		},
		{
			"bufferView":4,
			"componentType":5126,
			"count":216,
			"max":[
				1.2000000476837158,
				3.059999704360962,
				1.2000000476837158
			],
			"min":[
				-1.2000000476837158,
				0,
				-1.2000000476837158
			],
			"type":"VEC3"
		},
		{
			"bufferView":5,
			"componentType":5126,
			"count":216,
			"type":"VEC3"
		},
		{
			"bufferView":6,
			"componentType":5126,
			"count":216,
			"type":"VEC2"
		},
		{
			"bufferView":7,
			"componentType":5123,
			"count":360,
			"type":"SCALAR"
		}
	],
	"bufferViews":[
		{
			"buffer":0,
			"byteLength":3312,
			"byteOffset":0,
			"target":34962
		},
		{
			"buffer":0,
			"byteLength":3312,
			"byteOffset":3312,
			"target":34962
		},
		{
			"buffer":0,
			"byteLength":2208,
			"byteOffset":6624,
			"target":34962
		},
		{
			"buffer":0,
			"byteLength":1128,
			"byteOffset":8832,
			"target":34963
		},
		{
			"buffer":0,
			"byteLength":2592,
			"byteOffset":9960,
			"target":34962
		},
		{
			"buffer":0,
			"byteLength":2592,
			"byteOffset":12552,
			"target":34962
		},
		{
			"buffer":0,
			"byteLength":1728,
			"byteOffset":15144,
			"target":34962
		},
		{
			"buffer":0,
			"byteLength":720,
			"byteOffset":16872,
			"target":34963
		}
	],
	"buffers":[
		{
			"byteLength":17592,
			"uri":"sample.bin"
		}
	]
}
